<svg xmlns="http://www.w3.org/2000/svg" viewBox="0 0 512 512" width="512" height="512">
  <defs>
    <linearGradient id="g" x1="0" y1="0" x2="1" y2="1">
      <stop offset="0" stop-color="#3b82f6"/>
      <stop offset="1" stop-color="#a78bfa"/>
    </linearGradient>
  </defs>
  <rect width="512" height="512" rx="112" fill="#0a0a0f"/>
  <rect x="96" y="150" width="320" height="212" rx="26" fill="none" stroke="url(#g)" stroke-width="20"/>
  <path d="M232 212 L232 300 L312 256 Z" fill="url(#g)"/>
  <rect x="96" y="150" width="320" height="44" rx="0" fill="url(#g)" opacity="0.18"/>
  <g fill="#a78bfa">
    <rect x="120" y="158" width="22" height="28" transform="rotate(18 131 172)"/>
    <rect x="176" y="158" width="22" height="28" transform="rotate(18 187 172)"/>
    <rect x="232" y="158" width="22" height="28" transform="rotate(18 243 172)"/>
    <rect x="288" y="158" width="22" height="28" transform="rotate(18 299 172)"/>
    <rect x="344" y="158" width="22" height="28" transform="rotate(18 355 172)"/>
  </g>
</svg>
